# xmcd CD database file
#
# Track frame offsets:
#	182
#	19137
#	38470
#	56257
#	74167
#	90497
#	104947
#	123577
#	139302
#	155845
#	175202
#	191660
#	208577
#	221710
#	237870
#	254767
#	271917
#	295090
#
# Disc length: 4133 seconds
#
# Revision: 1
# Processed by: cddbd v1.5.1PL0 Copyright (c) Steve Scherf et al.
# Submitted via: CDex 1.51
#
DISCID=1d102312
DTITLE=Various Artist - Gefühle - Vol.15 - Die schönsten romantischen Schlager
DYEAR=1900
DGENRE=Oldies
TTITLE0=Roland Kaiser - Joana
TTITLE1=Daliah Lavi - Ich wollt nur mal mit dir reden
TTITLE2=Andreas Martin - Das erste Mal im Leben
TTITLE3=Andrea Jürgens and Robby - Mi amor
TTITLE4=Howard Carpendale - Hello Again
TTITLE5=Helmut Frey - Doch nachts gehörst du mir
TTITLE6=Nicole - Hörst du das Schweigen
TTITLE7=Siw Inger and Tony Holiday - Liebe ist
TTITLE8=Roy Black - Mona
TTITLE9=G.G. Anderson - Sommernacht in Rom
TTITLE10=Hanne Haller - So long und goodbye
TTITLE11=Roger Whittaker - Abschied ist ein scharfes Schwert
TTITLE12=Wind - Für alle
TTITLE13=Karel Gott and Darinka - Fang das Licht
TTITLE14=Benny Neymann - Dann ruf ich wieder deinen Namen
TTITLE15=Wolfgang Fierek - Geh ma zu dir, oder geh ma zu mir
TTITLE16=Stefan Waggershausen and Alice - Zu nah am Feuer
TTITLE17=Horst Frank - Meine Zeit mit dir
EXTD=
EXTT0=
EXTT1=
EXTT2=
EXTT3=
EXTT4=
EXTT5=
EXTT6=
EXTT7=
EXTT8=
EXTT9=
EXTT10=
EXTT11=
EXTT12=
EXTT13=
EXTT14=
EXTT15=
EXTT16=
EXTT17=
PLAYORDER=
